<svg width="5e3px" height="1679px" style="clip-rule:evenodd;fill-rule:evenodd;image-rendering:optimizeQuality;shape-rendering:geometricPrecision;text-rendering:geometricPrecision" version="1.1" viewBox="0 0 5e3 1679" xmlns="http://www.w3.org/2000/svg">
 <path class="fil0" d="m1e3 292c23 0 41 9.3 41 21v1081c0 11-18 21-41 21s-41-9.3-41-21v-1081c0-11 18-21 41-21z" style="fill:#000000"/>
 <path class="fil0" d="m1157 1064c-12 0-20-0.33-24-0.95 4.4-36 24-129 58-277 34-148 51-242 51-282 0-7.5-4.4-17-13-30-8.8-12-18-22-26-30l-12-13 2.8-15c86-16 177-24 273-24 115 0 173 45 173 136 0 45-11 85-33 122-22 37-57 65-104 86 35 117 65 193 90 228 11 14 20 22 26 22 11 0 29-5.6 53-17l11-5.6 22 35c-23 21-50 39-80 53-30 14-59 21-86 21-27 0-49-11-66-34-17-23-33-56-47-101-14-45-28-102-43-171-20 1.2-35 1.9-46 1.9-32 137-50 230-53 278-27 13-69 20-126 20zm193-362h23c38 0 67-17 89-50 22-33 32-73 32-120 0-24-4.4-44-13-59-8.8-15-22-23-40-23-7.5 0-16 1.1-27 3.2-10 2.3-16 3.7-16 4.3-10 65-26 146-49 245zm645-32c1.3-1.2 4.7-9.4 10-24 29 0 69 8.8 119 26-16 52-28 106-38 163-9.4 57-14 97-14 121 0 24 2.5 36 7.5 36 3.8 0 18-6 41-18l11-5.6 17 33c-5.6 5-13 11-22 19-9.2 7.5-26 18-51 30-25 13-48 19-68 19-39 0-61-18-68-53-40 35-76 53-109 53-32 0-60-13-82-38-22-25-33-65-33-119 0-84 17-150 52-199 34-49 76-73 125-73 35 0 69 9.1 102 27zm-107 321c15 0 32-6 51-18 4.4-88 19-176 44-262-19-8.1-35-12-48-12-23 0-42 22-58 66-16 44-24 93-24 146 0 53 12 80 35 80zm466-337h88c-1.3 14-6.9 32-17 55-24-2.5-47-3.8-71-3.8h-3.8c-13 155-25 269-37 343-11 74-26 126-44 155-23-0.62-46-3.6-70-8.9-24-5.4-41-11-50-17 15-46 30-116 46-210 15-93 25-180 30-259-18 1.3-37 3.4-58 6.6-1.9-8.2-2.8-17-2.8-25 0-8.4 1.3-21 3.8-37h60c1.2-55 4.1-96 8.5-124 7.5-50 25-90 52-118 27-28 62-43 106-43 28 0 49 6.1 65 18 16 12 24 32 24 58 0 26-12 60-36 102-24 42-55 77-94 107zm1.9-59c24-21 44-44 57-69 14-25 21-48 21-68 0-20-6.6-30-20-30-28 0-45 32-53 95-2.5 21-4.4 45-5.6 72zm274 59h87c-1.2 14-6.9 32-17 55-24-2.5-47-3.8-71-3.8h-3.8c-13 155-25 269-37 343-11 74-26 126-44 155-23-0.62-46-3.6-70-8.9-24-5.4-41-11-49-17 15-46 30-116 46-210 15-93 25-180 30-259-18 1.3-37 3.4-58 6.6-1.9-8.2-2.8-17-2.8-25 0-8.4 1.2-21 3.8-37h60c1.3-55 4.1-96 8.5-124 7.5-50 25-90 52-118 27-28 62-43 106-43 28 0 49 6.1 65 18 16 12 24 32 24 58 0 26-12 60-36 102-24 42-55 77-94 107zm1.9-59c24-21 44-44 57-69s21-48 21-68c0-20-6.6-30-20-30-28 0-45 32-53 95-2.5 21-4.4 45-5.6 72zm160 476c-22 0-40-7.2-54-22-14-14-21-35-21-61 0-26 16-109 47-249 31-140 46-241 46-303l-5.6-41c49-17 95-25 137-25 6.3 8.8 9.4 24 9.4 46 0 50-16 147-47 291-32 144-48 228-48 251 0 24 2.8 35 8.5 35l66-24 17 33c-21 17-47 33-78 47-30 14-56 22-78 22zm173-174c0-78 24-140 71-186 47-45 101-68 161-68 37 0 67 9.1 91 27 24 18 36 43 36 73 0 30-7.7 56-23 77-15 21-34 37-56 48-45 22-85 36-122 41l-23 2.8c4.4 59 29 88 72 88 15 0 31-3.8 48-11 17-7.5 30-15 40-23l14-11 23 30c-5 6.9-15 16-30 27-15 11-29 21-42 28-36 20-76 30-119 30-43 0-77-15-103-46-25-31-38-73-38-128zm135-31c32-5.6 57-19 76-40 19-21 28-49 28-83 0-34-10-51-30-51-24 0-42 20-55 61-13 40-19 78-19 113z" style="fill:#000000"/>
 <path class="fil0" d="m3540 1e3c-4.4 14-14 21-30 21-15 0-33-8.5-52-25 19-55 59-144 119-267 61-123 100-214 119-275 2.5-10 3.8-17 3.8-21 0-9.4-6.9-24-21-43l-7.5-10 1.9-12c53-15 112-23 177-23l57 3.8c6.9 9.4 12 24 16 43 10 48 15 170 15 368 0 77 6.6 130 20 162 5 12 10 18 15 18 5 0 20-6.3 46-19l12-5.6 19 34c-24 23-50 42-79 55-29 14-56 20-81 20-63 0-95-49-95-148v-74c-16-3.8-41-5.6-74-5.6-33 0-70 3.1-109 9.4-31 73-56 138-72 195zm103-262h155l0.94-109c0-95-4.1-160-12-194-5 0-8.8 0.62-11 1.9-18 48-34 89-49 123-15 34-32 69-50 107-18 38-29 62-33 71zm384 485c-3.1-7.5-4.7-24-4.7-50 0-26 12-95 37-208 24-112 37-199 37-260 0-12-2.8-25-8.5-38-5.6-14-12-24-18-32l-8.5-10 0.95-12c29-9.4 82-14 156-14 6.9 13 11 32 13 56 48-40 89-59 121-59 32 0 58 14 78 40 20 27 30 66 30 119 0 91-17 158-50 203-33 44-75 66-126 66-26 0-48-3.8-66-11l-9.4-3.8 6.6-37c5.6 1.2 12 1.9 20 1.9 16 0 31-7.5 43-23 12-15 22-34 28-57 13-46 19-89 19-129 0-56-12-85-35-85-18 0-38 7.2-58 22-2.5 44-15 121-39 230-23 110-35 198-35 265-34 14-77 22-131 25zm449 0c-3.1-7.5-4.7-24-4.7-50 0-26 12-95 37-208 24-112 37-199 37-260 0-12-2.8-25-8.5-38-5.6-14-12-24-18-32l-8.5-10 0.93-12c30-9.4 82-14 156-14 6.9 13 11 32 13 56 48-40 89-59 121-59 32 0 58 14 78 40 20 27 30 66 30 119 0 91-17 158-50 203-33 44-75 66-126 66-26 0-48-3.8-66-11l-9.4-3.8 6.6-37c5.6 1.2 12 1.9 20 1.9 16 0 31-7.5 43-23 12-15 21-34 28-57 13-46 19-89 19-129 0-56-12-85-35-85-18 0-38 7.2-58 22-2.5 44-15 121-39 230-23 110-35 198-35 265-34 14-77 22-131 25z" style="fill:#000000"/>
 <path class="fil1" d="m1241 1392h-47v-48l-64-56v-9.6h54l31 36h5.1l31-36h54v9.6l-66 57 1.5 16v31zm116 1.6c-21 0-37-3.1-49-9.3-12-6.2-17-16-17-30 0-14 5.7-24 17-30 12-6.2 28-9.2 49-9.2 21 0 38 3.1 49 9.2 11 6.2 17 16 17 30 0 14-5.6 24-17 30-11 6.2-27 9.3-49 9.3zm0-21c7 0 12-1.6 15-4.9 2.7-3.3 4.1-7.8 4.1-14 0-6-1.4-11-4.1-14-2.8-3.2-7.6-4.8-15-4.8-7.2 0-12 1.6-15 4.8-2.8 3.2-4.2 7.8-4.2 14 0 5.9 1.4 10 4.2 14 2.9 3.3 7.8 4.9 15 4.9zm121 21c-10 0-18-1.2-24-3.7-5.6-2.5-9.4-6-12-11-2.1-4.7-3.2-10-3.2-17v-46h46v42c0 4 1.2 7.1 3.7 9.3 2.5 2.3 6.2 3.4 11 3.4 4.6 0 8.9-1.2 13-3.7 3.9-2.5 5.8-6.1 5.8-11v-41h46v50l5.4 16-5.4 9.8h-44v-7.9l-2.6-0.81c-2.2 1.4-5.4 2.9-9.7 4.5-4.2 1.6-9 3-14 4.1-5.4 1.2-11 1.7-17 1.7zm164-1.6h-46v-50l-5.4-16 5.4-9.6h35l5.2 3.7s1.2-0.45 3.6-1.4c2.4-0.89 5.8-1.8 10-2.6 4.4-0.85 9.4-1.3 15-1.3 3.4 0 6.9 0.17 10 0.51 3.4 0.3 6.1 0.73 8 1.3l17 8.8-17 21-34-8.9-7.7 1.6v54zm280 0h-139l-5.2-9.7 5.2-16v-88h127l13 4.8-17 23-23-1.6h-54v18h69v25h-30l-39-1.6v21h77l31 15-15 10zm67 1.6c-7.4 0-14-0.67-20-2-6.2-1.3-11-3.6-15-7-3.8-3.3-5.7-7.9-5.7-14 0-5.4 2.2-9.8 6.4-13 4.3-3.5 10-6.1 17-7.9 7.4-1.7 16-2.6 25-2.6 8.9 0 16 0.62 20 1.8 4.4 1.3 8.3 2.5 12 3.8l1.8-0.99c0-3.2-0.45-5.9-1.3-8-0.86-2.2-2.8-3.8-5.9-4.9-3.1-1.2-7.9-1.7-14-1.7-6.3 0-13 0.34-20 1-7.1 0.7-14 1.6-20 2.6-5.9 1-10 2-13 3v-24c5.3-1.2 13-2.3 23-3.3 9.9-1 22-1.5 36-1.5 15 0 28 1.2 37 3.6 9 2.4 16 5.9 19 10 3.9 4.6 5.9 10 5.9 16v21l5.2 16-5.2 9.5h-44v-7.9l-2.6-0.82c-1.4 0.87-3.8 2.1-7.2 3.7-3.4 1.6-8 3.1-14 4.4-5.7 1.4-12 2-20 2zm22-21c4.6 0 8.6-0.29 12-0.82 3.4-0.53 5.8-1 7.4-1.4v-3.1c0-1.4-1.6-2.8-4.8-4-3.1-1.3-8.1-1.9-15-1.9-9.3 0-14 2-14 6.1 0 1.7 1 3 3.1 3.9 2.1 0.85 5.8 1.3 11 1.3zm147 21c-12 0-24-0.81-33-2.4-9.6-1.6-17-3.3-22-5v-22c7 1.9 14 3.4 22 4.5 7.4 1.1 14 1.8 20 2.2 6 0.37 10 0.56 13 0.56 2.9 0 5-0.31 6.2-0.9 1.2-0.59 1.8-1.3 1.8-2.2 0-1.2-1.6-2.2-4.6-3-3.1-0.79-8.9-1.8-18-3.1-7-1.1-14-2.4-20-4.1-6.6-1.7-12-4-16-7-4.2-3-6.3-7-6.3-12 0-6.2 2.3-11 6.9-15 4.6-3.5 11-6 20-7.5 8.6-1.4 19-2.2 30-2.2 6.6 0 13 0.23 18 0.64 5.7 0.43 9.7 0.77 12 0.96l24 9.7-12 17-45-6.1c-5.5 0-8.2 1.1-8.2 3.4 0 2.4 3.9 4.2 12 5.3 6.2 0.84 13 1.8 19 2.8 6.5 1 12 2.4 18 4 5.4 1.6 9.8 3.8 13 6.4 3.3 2.7 5 6.2 5 11 0 8.2-4.7 14-14 18-9.4 4-23 6-41 6zm89 38-36-8.1 10-24 36 6.4c7.4 0 13-1.2 16-3.6 3.3-2.4 5.8-5.8 7.6-10h-27l-28-55-4.9-21h49l14 53h5.1l14-53h49s-0.57 1.7-1.6 5c-1.1 3.4-2.7 7.9-4.6 13-2 5.6-4.3 12-7 18-2.7 6.7-5.5 13-8.4 20-2.9 6.8-5.9 13-9 19-4.6 8.9-10 16-17 22-6.4 5.8-14 10-24 13-9.3 2.8-21 4.3-35 4.3zm221-39h-48l12-27v-20l19-4.8 33-61h67l41 72 20 23v19h-46l-13-26h-75l-11 26zm47-87-19 37h44l-20-37h-5.4zm162 87h-46v-48l-5.2-18 8-9.8h38v6.9l2.3 0.96c1.9-1.1 4.5-2.3 7.9-3.8 3.3-1.4 7.4-2.8 12-3.9 4.8-1.2 10-1.8 16-1.8 15 0 27 2.7 35 8.2s12 13 12 23v20l5.4 16-5.4 9.8h-46v-42c0-4.1-1.4-7.2-4.2-9.4-2.8-2.2-7.3-3.3-13-3.3l-16 3v52zm150 1.6c-8 0-16-1.3-23-3.8-7.5-2.6-14-6.7-18-12-4.8-5.6-7.2-13-7.2-22 0-10 2.3-18 7.1-24 4.7-6 11-10 18-13 7.6-2.7 15-4.1 23-4.1 12 0 21 0.64 26 1.9 5 1.3 7.6 1.9 7.6 1.9l-2.6-30 2.6-9.7h47v88l5.2 16-5.2 9.8h-44v-7.9l-2.6-0.82s-1.3 0.84-3.9 2.5c-2.6 1.7-6.4 3.4-11 5.1-5 1.7-11 2.6-18 2.6zm19-23 14-2.2v-23c0-2.5-1.3-4.4-3.9-5.9-2.6-1.4-6-2.1-10-2.1-6.4 0-11 1.3-14 3.9-3.3 2.6-4.9 7-4.9 13 0 5.9 1.9 10 5.7 13 3.8 2.7 8.3 4 14 4zm218 23c-9.4 0-18-0.56-27-1.7-8.4-1.1-16-2.5-22-4.1-6.2-1.6-11-3.1-14-4.5v-29c8.2 2.9 19 5.6 31 8.1 13 2.5 26 3.8 42 3.8 6.2 0 11-0.5 14-1.5 3-1 4.5-2.8 4.5-5.4 0-2.8-3.4-5.1-10-7-6.8-1.8-17-4.2-32-7-11-2.3-21-4.8-29-7.5-8-2.7-14-6.2-18-10s-6.3-9.4-6.3-16c0-6.6 2.7-13 8.2-18 5.5-5.4 14-9.6 26-13 12-3.1 27-4.7 45-4.7 5.5 0 11 0.14 18 0.42 6.3 0.25 11 0.62 15 1l29 13-10 20-61-10c-7 0-12 0.9-16 2.7-3.3 1.8-5 4-5 6.6 0 3.1 2.8 5.6 8.5 7.4 5.7 1.8 14 3.7 24 5.5 17 2.9 30 6.1 39 9.7 9.2 3.5 16 7.5 20 12 3.8 4.5 5.7 9.5 5.7 15 0 10-6.6 19-20 25-13 6.3-33 9.4-59 9.4zm161-103-33 21-33-21 33-20 33 20zm-9.5 101h-46v-53l-5.4-13 5.2-9.8h47v76zm29-48-5.1-18 8-9.8h38v6.9l2.3 0.96c1.9-1.1 4.5-2.3 7.8-3.8 3.4-1.4 7.4-2.8 12-3.9 4.8-1.2 10-1.8 16-1.8 18 0 31 3.7 38 11 3.1-2.7 7.8-5.2 14-7.6 6.2-2.4 15-3.6 26-3.6 15 0 27 2.8 35 8.2 7.7 5.5 12 13 12 23v21l5.4 16-5.4 9.8h-46v-42c0-4.1-1.4-7.2-4.2-9.4-2.9-2.2-7.3-3.3-13-3.3-4 0-7.4 0.9-10 2.7-2.9 1.8-4.4 4.1-4.4 6.9v45h-46v-42c0-4.1-1.4-7.2-4.2-9.4-2.9-2.2-7.3-3.3-13-3.3l-16 3v52h-46v-48zm282 88h-46v-88l-5.2-18 8-9.8h38v6.9l2.6 0.82s1.6-0.82 4.6-2.4c3.1-1.6 7.4-3.2 13-4.8 5.4-1.6 12-2.3 19-2.3 15 0 27 3 36 9.2 8.7 6.1 13 16 13 29 0 9.9-2.2 18-6.6 24-4.4 6.1-10 10-18 13-7.4 2.7-16 4-25 4-12 0-21-0.64-26-1.9-5-1.2-7.6-1.8-7.6-1.8v42zm12-60c6.5 0 12-1.4 16-4.4 4-2.9 6.1-7.3 6.1-13 0-5.8-1.6-10-4.9-13-3.2-2.7-8-4-14-4l-14 3.4v29s0.85 0.37 2.7 1c1.8 0.71 4.9 1.1 9.2 1.1zm139 21h-46l-0.27-88-5.2-16 5.4-9.6h46v114zm90 1.6c-13 0-25-1.2-35-3.7-10-2.5-18-6.6-24-12-5.8-5.8-8.8-14-8.8-23 0-7.1 2-13 5.8-18 3.8-5.1 9-9.2 16-12 6.5-3.1 14-5.4 22-6.9 8-1.4 16-2.2 25-2.2 15 0 26 0.92 34 2.7 8 1.8 13 3.3 16 4.4l13 26-5.2 10h-80c1.2 4 4.4 7.3 9.5 10 5.1 2.7 14 4 25 4 9.3 0 17-0.64 24-1.9 6.7-1.3 12-2.4 16-3.4v22c-5.2 1.7-13 3.2-22 4.4-9.7 1.2-20 1.8-30 1.8zm-22-47 36-3.2-2.4-6.9c-1.2-0.41-2.9-0.73-5.2-0.96-2.3-0.22-4.4-0.3-6.1-0.3-4.8 0-8.8 0.64-12 1.9-3.2 1.3-5.6 2.8-7.2 4.6-1.7 1.8-2.6 3.4-2.7 4.9zm220 45h-46v-88l-5.2-16 5.2-9.6h82c13 0 24 1.2 34 3.6 10 2.4 18 6.4 24 12 5.9 5.8 8.9 14 8.9 24 0 9.1-2.6 16-8 22-5.4 5.6-13 9.9-22 13l2.6 1.8 25 20 15 8.2v9.7h-58l-36-34h-21v8.4l2.6 16-2.6 9.8zm-2.6-88 2.6 29h25c8.9 0 16-1.1 21-3.2 5.3-2.1 8-6 8-12 0-4-1.3-7-3.9-9-2.6-2-6.1-3.3-11-3.9-4.5-0.62-9.8-0.96-16-0.96h-27zm169 90c-7.4 0-14-0.67-20-2-6.2-1.3-11-3.6-15-7-3.8-3.3-5.7-7.9-5.7-14 0-5.4 2.2-9.8 6.4-13 4.3-3.5 10-6.1 18-7.9 7.4-1.7 16-2.6 25-2.6 8.9 0 16 0.62 20 1.8 4.5 1.3 8.4 2.5 12 3.8l1.8-0.99c0-3.2-0.45-5.9-1.3-8-0.86-2.2-2.8-3.8-5.9-4.9-3.1-1.2-7.9-1.7-14-1.7-6.3 0-13 0.34-20 1-7.1 0.7-14 1.6-20 2.6-5.9 1-10 2-13 3v-24c5.3-1.2 13-2.3 23-3.3 9.8-1 22-1.5 36-1.5 15 0 28 1.2 37 3.6 9 2.4 15 5.9 19 10 4 4.6 5.9 10 5.9 16v21l5.2 16-5.2 9.5h-44v-7.9l-2.6-0.82c-1.4 0.87-3.8 2.1-7.2 3.7-3.4 1.6-8 3.1-14 4.4-5.7 1.4-12 2-20 2zm22-21c4.6 0 8.6-0.29 12-0.82 3.3-0.53 5.8-1 7.3-1.4v-3.1c0-1.4-1.6-2.8-4.8-4-3.2-1.3-8.1-1.9-15-1.9-9.3 0-14 2-14 6.1 0 1.7 1 3 3.1 3.9 2.1 0.85 5.8 1.3 11 1.3zm146 19h-46v-52l-14-16 14-7.7c-0.85-1.8-1.5-4.3-1.9-7.3-0.45-3-0.67-5.5-0.67-7.5 0-6.1 2.3-11 6.8-16 4.6-4.6 11-8.3 19-11 8-2.6 17-3.9 27-3.9 4.8 0 9.9 0.12 15 0.36 5.4 0.29 10 0.77 14 1.4l28 9.8-20 22-30-11c-5.8 0-10 1.3-13 3.9-2.8 2.6-4.1 5.6-4.1 8.8 0 2.4 0.59 4.4 1.8 6.3 1.2 1.8 2.4 3.2 3.6 4h41v19h-41v31l2.6 16-2.6 9.8zm105 0h-46v-52l-14-16 14-7.7c-0.85-1.8-1.5-4.3-1.9-7.3-0.45-3-0.63-5.5-0.63-7.5 0-6.1 2.2-11 6.8-16 4.6-4.6 11-8.3 19-11 8-2.6 17-3.9 27-3.9 4.8 0 9.9 0.12 15 0.36 5.4 0.29 10 0.77 14 1.4l28 9.8-20 22-30-11c-5.8 0-10 1.3-13 3.9-2.7 2.6-4.1 5.6-4.1 8.8 0 2.4 0.59 4.4 1.8 6.3 1.2 1.8 2.4 3.2 3.6 4h41v19h-41v31l2.6 16-2.6 9.8zm108 0h-46l-0.27-88-5.1-16 5.4-9.6h46v114zm90 1.6c-13 0-25-1.2-35-3.7-10-2.5-18-6.6-24-12-5.8-5.8-8.8-14-8.8-23 0-7.1 1.9-13 5.8-18 3.9-5.1 9-9.2 16-12 6.5-3.1 14-5.4 22-6.9 8.1-1.4 16-2.2 25-2.2 15 0 26 0.92 34 2.7 8 1.8 13 3.3 16 4.4l13 26-5.1 10h-80c1.2 4 4.4 7.3 9.5 10s14 4 25 4c9.3 0 17-0.64 24-1.9 6.7-1.3 12-2.4 16-3.4v22c-5.1 1.7-13 3.2-22 4.4-9.7 1.2-20 1.8-30 1.8zm-22-47 36-3.2-2.3-6.9c-1.2-0.41-3-0.73-5.3-0.96-2.4-0.22-4.4-0.3-6.1-0.3-4.8 0-8.8 0.64-12 1.9-3.2 1.3-5.6 2.8-7.2 4.6-1.7 1.8-2.6 3.4-2.7 4.9zm156 47c-13 0-24-0.81-33-2.4s-17-3.3-22-5v-22c7.1 1.9 14 3.4 22 4.5 7.4 1.1 14 1.8 20 2.2 6 0.37 10 0.56 13 0.56 2.9 0 5-0.31 6.2-0.9 1.2-0.59 1.8-1.3 1.8-2.2 0-1.2-1.6-2.2-4.7-3-3-0.79-8.9-1.8-17-3.1-7.1-1.1-14-2.4-20-4.1-6.6-1.7-12-4-16-7-4.2-3-6.3-7-6.3-12 0-6.2 2.3-11 7-15s11-6 20-7.5c8.6-1.4 19-2.2 30-2.2 6.5 0 13 0.23 18 0.64 5.7 0.43 9.7 0.77 12 0.96l24 9.7-12 17-45-6.1c-5.5 0-8.3 1.1-8.3 3.4 0 2.4 3.9 4.2 12 5.3 6.2 0.84 13 1.8 19 2.8 6.5 1 12 2.4 18 4 5.4 1.6 9.8 3.8 13 6.4 3.4 2.7 5 6.2 5 11 0 8.2-4.7 14-14 18-9.3 4-23 6-41 6z" style="fill:#000000"/>
 <g style="fill:#000000">
  <path class="fil1" d="m109 530c-3.3 3.3-5.1 7.8-5.1 12 0 4.6 1.8 9.1 5.1 12l155 155c6.8 6.8 18 6.8 25 0 6.8-6.9 6.8-18 0-25l-155-155c-6.8-6.8-18-6.8-25 0z" style="fill:#000000"/>
  <path class="fil1" d="m610 615v-216c0-9.7-7.8-18-18-18-9.7 0-18 7.9-18 18v216c0 9.7 7.9 18 18 18 9.7 0 18-7.8 18-18z" style="fill:#000000"/>
  <path class="fil1" d="m338 305c-2-7.8-9-13-17-13h-0.68c-1.3 0.02-2.7 0.21-4 0.56-9.4 2.4-15 12-13 21l53 210c2.4 9.4 12 15 21 13 9.4-2.4 15-12 13-21l-53-210z" style="fill:#000000"/>
  <path class="fil1" d="m107 930c55 79 55 115 54 149-2.6 251 171 329 275 335 7.9 0.43 16 0.7 23 0.7 97 1.2 189-39 254-111l57-63 0.97-1.2 28-31c15-15 23-35 23-56v-0.91c-0.04-7.4-1.1-15-3.2-22-8.2-28-31-49-59-55 5.5-20 2-42-9.7-59s-30-29-51-31c2.8-7.9 4.3-16 4.4-25 0.11-38-26-70-63-78l95-95c20-20 28-50 20-78-7.7-28-30-49-58-56-28-6.8-57 1.9-77 23-104 111-234 238-285 259-30 12-37 2.7-60-35-16-30-37-56-63-78-30-25-66-25-96-1.9-33 26-38 72-12 110zm637 178c12-0.05 23 4.6 31 13 8.4 8.4 13 20 13 32-0.11 12-5 23-13 32l-28 31c-15 7.2-33 4.2-45-7.6l-1.6-1.7c-15-15-16-38-3.3-54l44-44 3.6 0.53zm-26-78c13 13 14 35 2.1 49-0.74 0.67-1.4 1.4-2 2.2l-50 50c-14 5.3-31 1.9-42-8.8l-2.1-2.1c-14-15-15-38-2.4-54 7-5.4 36-29 52-42 14-8.6 33-6.5 45 5.2h0.17zm-61-101c8.4 8.3 13 20 13 31-1.2 14-7.7 28-18 37-11 9.3-34 28-51 41-15 4.2-31 0.05-41-11l-1.1-1.2c-17-17-17-44 0-60l41-41c17-13 42-12 58 4l0.08 0.08zm-516-81c17-13 34-13 52 1.7 22 19 41 43 55 69 8.1 15 18 29 30 42 0.33 0.49 0.68 0.96 1.1 1.4 1.5 1.6 35 38 0.87 92-4.8 8.1-2.3 19 5.7 24 8 5.1 19 3 24-4.8 20-28 26-64 16-96 8.7-1.2 17-3.5 25-6.9 69-28 231-196 297-267 8.2-8.8 20-14 32-14 12-0.19 24 4.5 32 13 8.3 8.3 13 20 13 31s-4.7 23-13 31l-179 178c-15 15-23 34-23 55 0 21 8.2 40 23 55l0.97 0.97c12 12 28 20 45 22-6.2 26 1.4 53 20 72l0.7 0.6 0.7 0.7c14 14 33 22 53 22-2.4 23 5.6 45 22 61l1.3 1.5c10 10 23 17 37 20l-27 30c-64 68-155 104-248 97-45-3.9-89-19-127-44h8.3 7.5c44-2.8 84-29 120-79 5.4-7.9 3.5-19-4.3-24-7.7-5.6-18-3.9-24 3.7-29 41-60 62-93 65-46 3-80-33-81-34-0.78-0.81-1.6-1.5-2.5-2.2-27-43-46-103-45-185 0.53-46-3.7-88-61-170-13-19-17-45 4.6-63z" style="fill:#000000"/>
  <polygon class="fil1" points="413 649 374 655 402 682 396 720 430 702 465 720 458 682 486 655 448 649 430 614" style="fill:#000000"/>
  <polygon class="fil1" points="470 438 481 465 495 439 524 436 504 415 511 386 484 399 459 384 463 413 441 433" style="fill:#000000"/>
  <polygon class="fil1" points="236 426 215 406 212 435 186 449 213 461 218 490 238 468 267 472 252 447 265 420" style="fill:#000000"/>
 </g>
</svg>
