<?xml version="1.0" encoding="UTF-8"?>
<!DOCTYPE svg PUBLIC "-//W3C//DTD SVG 1.1//EN" "http://www.w3.org/Graphics/SVG/1.1/DTD/svg11.dtd">
<!-- Creator: CorelDRAW 2021 (64-Bit) -->
<svg xmlns="http://www.w3.org/2000/svg" xml:space="preserve" width="4978px" height="1679px" version="1.1" style="shape-rendering:geometricPrecision; text-rendering:geometricPrecision; image-rendering:optimizeQuality; fill-rule:evenodd; clip-rule:evenodd"
viewBox="0 0 4978 1678.95"
 xmlns:xlink="http://www.w3.org/1999/xlink"
 xmlns:xodm="http://www.corel.com/coreldraw/odm/2003">
 <defs>
  <style type="text/css">
   <![CDATA[
    .fil0 {fill:#EA3C12;fill-rule:nonzero}
    .fil1 {fill:#FFBE79;fill-rule:nonzero}
   ]]>
  </style>
 </defs>
 <g id="Capa_x0020_1">
  <metadata id="CorelCorpID_0Corel-Layer"/>
  <path class="fil0" d="M1025.56 291.5c22.54,0 40.82,9.32 40.82,20.81l0 1081.33c0,11.48 -18.28,20.8 -40.82,20.8 -22.54,0 -40.82,-9.32 -40.82,-20.8l0 -1081.33c0,-11.49 18.28,-20.81 40.82,-20.81z"/>
  <path class="fil0" d="M1156.93 1064.48c-11.92,0 -20.09,-0.33 -24.47,-0.95 4.38,-36.36 23.72,-128.74 57.95,-277.13 34.11,-148.27 51.19,-242.15 51.19,-281.65 0,-7.54 -4.4,-17.45 -13.18,-29.74 -8.78,-12.18 -17.55,-22.33 -26.34,-30.47l-12.22 -13.17 2.81 -15.05c85.92,-16.31 176.86,-24.47 272.81,-24.47 115.4,0 173.1,45.48 173.1,136.41 0,44.54 -11.1,85.1 -33.3,121.74 -22.33,36.74 -57.02,65.46 -104.06,86.17 35.14,117.27 65.24,193.16 90.32,227.66 11.3,14.42 20.07,21.63 26.33,21.63 11.3,0 28.85,-5.65 52.69,-16.93l11.28 -5.65 21.65 34.8c-23.19,21.32 -50,38.9 -80.34,52.69 -30.49,13.78 -59.02,20.68 -85.61,20.68 -26.71,0 -48.67,-11.47 -65.84,-34.42 -17.32,-22.82 -33,-56.5 -47.04,-101.03 -14.18,-44.53 -28.47,-101.6 -42.91,-171.21 -20.07,1.25 -35.42,1.87 -46.09,1.87 -31.98,137.36 -49.53,230.17 -52.67,278.46 -26.97,13.17 -69,19.76 -126.06,19.76zm192.84 -362.19l22.57 0c37.64,0 67.31,-16.79 89.01,-50.42 21.58,-33.48 32.35,-73.42 32.35,-119.84 0,-24.47 -4.37,-44.23 -13.17,-59.27 -8.78,-15.05 -21.95,-22.59 -39.51,-22.59 -7.52,0 -16.42,1.08 -26.71,3.21 -10.4,2.26 -15.61,3.71 -15.61,4.33 -10.04,64.58 -26.36,146.13 -48.93,244.58zm645.34 -31.98c1.26,-1.25 4.71,-9.41 10.36,-24.46 29.47,0 68.98,8.78 118.52,26.35 -15.67,52.05 -28.22,106.43 -37.63,163.12 -9.41,56.81 -14.11,97.27 -14.11,121.34 0,24.22 2.51,36.32 7.54,36.32 3.76,0 17.54,-5.96 41.39,-17.88l11.28 -5.64 16.92 32.93c-5.63,5.02 -12.97,11.29 -22,18.81 -9.17,7.54 -26.29,17.69 -51.37,30.49 -25.08,12.92 -47.66,19.36 -67.72,19.36 -38.89,0 -61.47,-17.54 -67.73,-52.67 -40.14,35.13 -76.34,52.67 -108.57,52.67 -32.36,0 -59.64,-12.55 -81.85,-37.61 -22.33,-25.08 -33.48,-64.6 -33.48,-118.54 0,-84.04 17.25,-150.38 51.74,-199.06 34.49,-48.54 76.19,-72.81 125.12,-72.81 35.12,0 68.99,9.08 101.59,27.28zm-107.24 320.79c15.05,0 31.98,-5.97 50.8,-17.87 4.38,-88.43 19.14,-175.91 44.21,-262.47 -18.8,-8.14 -34.8,-12.22 -47.97,-12.22 -22.58,0 -41.83,22.06 -57.77,66.22 -16.05,44.27 -24.08,93.07 -24.08,146.38 0,53.3 11.62,79.96 34.81,79.96zm465.65 -336.79l87.5 0c-1.27,13.8 -6.91,32 -16.94,54.58 -23.83,-2.51 -47.35,-3.78 -70.56,-3.78l-3.76 0c-13.16,154.9 -25.39,269.37 -36.68,343.37 -11.28,74.01 -26.03,125.73 -44.21,155.23 -22.57,-0.62 -45.92,-3.58 -69.99,-8.86 -24.22,-5.38 -40.71,-10.9 -49.5,-16.55 15.06,-46.4 30.31,-116.33 45.73,-209.77 15.29,-93.46 25.16,-179.69 29.53,-258.71 -17.54,1.26 -37,3.45 -58.31,6.59 -1.89,-8.16 -2.83,-16.51 -2.83,-25.02 0,-8.42 1.26,-20.75 3.77,-37.08l60.21 0c1.25,-54.56 4.07,-95.95 8.46,-124.17 7.52,-50.18 24.97,-89.56 52.3,-118.15 27.23,-28.47 62.47,-42.71 105.75,-42.71 27.59,0 49.41,6.07 65.46,18.24 15.93,12.29 23.89,31.61 23.89,57.96 0,26.34 -11.89,60.34 -35.74,101.98 -23.83,41.76 -55.18,77.37 -94.08,106.85zm1.89 -59.26c24.46,-20.69 43.59,-43.59 57.39,-68.67 13.79,-25.08 20.69,-47.85 20.69,-68.3 0,-20.31 -6.58,-30.48 -19.76,-30.48 -27.59,0 -45.15,31.67 -52.67,95.02 -2.51,21.32 -4.4,45.48 -5.65,72.43zm273.75 59.26l87.49 0c-1.25,13.8 -6.9,32 -16.93,54.58 -23.84,-2.51 -47.36,-3.78 -70.56,-3.78l-3.75 0c-13.17,154.9 -25.41,269.37 -36.69,343.37 -11.3,74.01 -26.03,125.73 -44.23,155.23 -22.57,-0.62 -45.9,-3.58 -69.98,-8.86 -24.22,-5.38 -40.69,-10.9 -49.48,-16.55 15.05,-46.4 30.29,-116.33 45.72,-209.77 15.3,-93.46 25.14,-179.69 29.54,-258.71 -17.56,1.26 -37.01,3.45 -58.34,6.59 -1.87,-8.16 -2.81,-16.51 -2.81,-25.02 0,-8.42 1.25,-20.75 3.76,-37.08l60.2 0c1.27,-54.56 4.09,-95.95 8.47,-124.17 7.53,-50.18 24.97,-89.56 52.31,-118.15 27.22,-28.47 62.45,-42.71 105.73,-42.71 27.6,0 49.43,6.07 65.48,18.24 15.93,12.29 23.9,31.61 23.9,57.96 0,26.34 -11.92,60.34 -35.75,101.98 -23.84,41.76 -55.19,77.37 -94.08,106.85zm1.88 -59.26c24.46,-20.69 43.6,-43.59 57.39,-68.67 13.79,-25.08 20.7,-47.85 20.7,-68.3 0,-20.31 -6.59,-30.48 -19.76,-30.48 -27.6,0 -45.15,31.67 -52.69,95.02 -2.49,21.32 -4.37,45.48 -5.64,72.43zm159.56 476c-21.7,0 -39.58,-7.19 -53.64,-21.63 -14.16,-14.43 -21.25,-34.67 -21.25,-60.77 0,-25.97 15.56,-109.07 46.66,-249.3 30.99,-140.1 46.47,-241.19 46.47,-303.27l-5.65 -41.41c48.93,-16.93 94.7,-25.39 137.36,-25.39 6.27,8.79 9.41,24.14 9.41,46.09 0,50.19 -15.81,147.19 -47.41,291.06 -31.74,144 -47.61,227.72 -47.61,251.18 0,23.58 2.83,35.37 8.46,35.37l65.85 -23.52 16.93 32.93c-21.31,16.94 -47.17,32.6 -77.51,47.03 -30.48,14.44 -56.49,21.63 -78.07,21.63zm173.47 -174.03c0,-78.4 23.7,-140.35 71.11,-185.89 47.28,-45.39 101.03,-68.1 161.24,-68.1 37.01,0 67.41,9.08 91.26,27.28 23.83,18.2 35.74,42.51 35.74,73 0,30.36 -7.66,55.88 -22.95,76.58 -15.43,20.69 -34.12,36.69 -56.07,47.97 -44.53,21.96 -85.29,35.76 -122.3,41.39l-22.58 2.83c4.4,58.94 28.55,88.43 72.45,88.43 15.04,0 31.04,-3.77 47.97,-11.3 16.94,-7.51 30.11,-15.05 39.51,-22.57l14.12 -11.3 22.57 30.12c-5.03,6.9 -15.06,15.98 -30.11,27.28 -15.04,11.29 -29.15,20.7 -42.34,28.22 -36.36,20.07 -76.18,30.09 -119.46,30.09 -43.27,0 -77.47,-15.36 -102.54,-46.09 -25.07,-30.72 -37.62,-73.38 -37.62,-127.94zm134.51 -31.03c32,-5.65 57.39,-19.15 76.21,-40.47 18.81,-21.3 28.22,-48.91 28.22,-82.78 0,-33.85 -10.03,-50.8 -30.11,-50.8 -23.83,0 -42.14,20.27 -54.94,60.78 -12.92,40.4 -19.38,78.14 -19.38,113.27z"/>
  <path class="fil0" d="M3540.28 1002.87c-4.37,13.79 -14.24,20.69 -29.54,20.69 -15.43,0 -32.86,-8.46 -52.29,-25.39 18.8,-55.2 58.64,-144.13 119.47,-266.81 60.82,-122.52 100.32,-214.23 118.52,-275.05 2.51,-10.05 3.76,-16.95 3.76,-20.7 0,-9.41 -6.9,-23.85 -20.69,-43.28l-7.53 -10.34 1.88 -12.24c53.31,-15.04 112.26,-22.58 176.86,-22.58l57.38 3.76c6.92,9.41 12.24,23.85 16,43.28 10.02,47.66 15.05,170.27 15.05,367.84 0,76.51 6.58,130.43 19.75,161.8 5.02,11.9 10.04,17.87 15.05,17.87 5.03,0 20.38,-6.26 46.1,-18.81l12.24 -5.65 18.81 33.87c-23.84,23.19 -50.29,41.52 -79.41,54.93 -29.22,13.54 -56.06,20.32 -80.52,20.32 -63.35,0 -95,-49.24 -95,-147.7l0 -74.31c-16.33,-3.77 -41.09,-5.64 -74.32,-5.64 -33.26,0 -69.62,3.14 -109.14,9.41 -31.36,72.76 -55.5,137.67 -72.43,194.73zm102.55 -262.47l155.21 0 0.94 -109.12c0,-95.33 -4.08,-159.93 -12.22,-193.79 -5.03,0 -8.79,0.62 -11.3,1.87 -17.54,48.31 -34,89.18 -49.3,122.68 -15.41,33.63 -32.03,69.37 -49.85,107.25 -17.93,38 -29.1,61.7 -33.48,71.11zm383.81 485.41c-3.14,-7.52 -4.71,-24.14 -4.71,-49.85 0,-25.72 12.23,-94.88 36.69,-207.53 24.47,-112.5 36.69,-199.19 36.69,-260.02 0,-11.91 -2.81,-24.59 -8.46,-38 -5.65,-13.54 -11.61,-24.07 -17.88,-31.61l-8.48 -10.35 0.95 -12.23c29.49,-9.4 81.53,-14.1 156.17,-14.1 6.9,13.16 11.28,31.67 13.17,55.5 48.29,-39.51 88.61,-59.27 120.97,-59.27 32.24,0 58.27,13.5 78.09,40.45 19.69,26.97 29.53,66.48 29.53,118.54 0,90.92 -16.61,158.47 -49.86,202.63 -33.24,44.27 -75.26,66.41 -126.06,66.41 -26.33,0 -48.29,-3.76 -65.84,-11.28l-9.41 -3.76 6.58 -36.69c5.65,1.25 12.24,1.87 19.76,1.87 16.31,0 30.53,-7.52 42.71,-22.57 12.29,-15.06 21.58,-34.19 27.85,-57.38 12.55,-46.42 18.81,-89.37 18.81,-128.89 0,-56.43 -11.62,-84.65 -34.81,-84.65 -18.2,0 -37.63,7.19 -58.32,21.63 -2.51,43.89 -15.38,120.74 -38.58,230.47 -23.19,109.75 -34.8,198.18 -34.8,265.29 -33.87,13.79 -77.46,22.25 -130.76,25.39zm448.73 0c-3.14,-7.52 -4.71,-24.14 -4.71,-49.85 0,-25.72 12.22,-94.88 36.69,-207.53 24.46,-112.5 36.69,-199.19 36.69,-260.02 0,-11.91 -2.82,-24.59 -8.47,-38 -5.65,-13.54 -11.6,-24.07 -17.87,-31.61l-8.47 -10.35 0.93 -12.23c29.5,-9.4 81.53,-14.1 156.18,-14.1 6.9,13.16 11.28,31.67 13.17,55.5 48.29,-39.51 88.6,-59.27 120.96,-59.27 32.24,0 58.27,13.5 78.1,40.45 19.69,26.97 29.52,66.48 29.52,118.54 0,90.92 -16.6,158.47 -49.85,202.63 -33.24,44.27 -75.27,66.41 -126.07,66.41 -26.33,0 -48.29,-3.76 -65.83,-11.28l-9.41 -3.76 6.58 -36.69c5.64,1.25 12.23,1.87 19.75,1.87 16.31,0 30.62,-7.52 42.91,-22.57 12.16,-15.06 21.39,-34.19 27.65,-57.38 12.55,-46.42 18.82,-89.37 18.82,-128.89 0,-56.43 -11.62,-84.65 -34.82,-84.65 -18.19,0 -37.63,7.19 -58.31,21.63 -2.51,43.89 -15.39,120.74 -38.58,230.47 -23.2,109.75 -34.8,198.18 -34.8,265.29 -33.87,13.79 -77.46,22.25 -130.76,25.39z"/>
  <path class="fil1" d="M1240.89 1391.79l-46.83 0 0 -48.29 -63.83 -55.99 0 -9.64 54.03 0 30.92 36.35 5.12 0 30.65 -36.35 54.07 0 0 9.64 -65.67 56.96 1.54 16.24 0 31.08zm115.86 1.59c-20.94,0 -37.16,-3.11 -48.67,-9.32 -11.5,-6.24 -17.21,-16.32 -17.21,-30.26 0,-14.05 5.71,-24.16 17.21,-30.33 11.51,-6.16 27.73,-9.25 48.67,-9.25 21.45,0 37.72,3.09 48.77,9.25 11.06,6.17 16.63,16.28 16.63,30.33 0,13.94 -5.57,24.02 -16.63,30.26 -11.05,6.21 -27.32,9.32 -48.77,9.32zm0 -20.92c7.02,0 11.91,-1.64 14.66,-4.92 2.74,-3.26 4.13,-7.83 4.13,-13.74 0,-6.01 -1.39,-10.61 -4.13,-13.84 -2.75,-3.21 -7.64,-4.81 -14.66,-4.81 -7.24,0 -12.22,1.6 -15.09,4.81 -2.79,3.23 -4.23,7.83 -4.23,13.84 0,5.91 1.44,10.48 4.23,13.74 2.87,3.28 7.85,4.92 15.09,4.92zm120.72 20.92c-10.28,0 -18.24,-1.23 -23.82,-3.7 -5.56,-2.48 -9.43,-6.04 -11.59,-10.71 -2.11,-4.66 -3.19,-10.25 -3.19,-16.8l0 -46.49 46.33 0 0 42.31c0,3.96 1.22,7.08 3.7,9.32 2.51,2.26 6.24,3.38 11.23,3.38 4.63,0 8.86,-1.21 12.72,-3.69 3.87,-2.47 5.8,-6.07 5.8,-10.78l0 -40.54 46.34 0 0 50.2 5.44 16.07 -5.44 9.84 -43.51 0 0 -7.9 -2.56 -0.81c-2.2,1.4 -5.45,2.92 -9.67,4.52 -4.18,1.6 -8.99,2.98 -14.43,4.07 -5.38,1.15 -11.18,1.71 -17.35,1.71zm163.7 -1.59l-45.85 0 0 -50.37 -5.39 -16.11 5.39 -9.63 35.02 0 5.16 3.68c0,0 1.17,-0.45 3.59,-1.38 2.39,-0.89 5.8,-1.76 10.21,-2.63 4.36,-0.85 9.43,-1.3 15.28,-1.3 3.42,0 6.88,0.17 10.3,0.51 3.41,0.3 6.06,0.73 7.95,1.26l16.76 8.85 -16.76 20.62 -33.98 -8.88 -7.68 1.63 0 53.75zm279.56 0l-138.76 0 -5.16 -9.67 5.16 -16.1 0 -88.15 127.43 0 12.86 4.81 -17 22.52 -23.15 -1.6 -53.79 0 0 17.7 69.21 0 0 24.94 -30.38 0 -38.83 -1.6 0 21.38 76.94 0 30.65 15.45 -15.18 10.32zm66.65 1.59c-7.38,0 -14.2,-0.67 -20.49,-2.02 -6.25,-1.32 -11.25,-3.65 -15.02,-7 -3.77,-3.31 -5.66,-7.91 -5.66,-13.82 0,-5.36 2.15,-9.83 6.42,-13.37 4.27,-3.53 10.11,-6.14 17.49,-7.86 7.41,-1.71 15.73,-2.59 24.99,-2.59 8.94,0 15.59,0.62 20.09,1.83 4.45,1.27 8.32,2.52 11.6,3.82l1.79 -0.99c0,-3.2 -0.45,-5.89 -1.3,-8.03 -0.86,-2.16 -2.83,-3.79 -5.93,-4.89 -3.11,-1.15 -7.87,-1.71 -14.43,-1.71 -6.34,0 -13.08,0.34 -20.23,1.04 -7.1,0.7 -13.61,1.55 -19.55,2.55 -5.89,1.05 -10.29,2.03 -13.21,3.01l0 -24.13c5.31,-1.18 12.9,-2.31 22.74,-3.31 9.89,-1.02 22.02,-1.52 36.45,-1.52 15.46,0 27.65,1.21 36.68,3.59 8.99,2.42 15.5,5.9 19.46,10.46 3.91,4.58 5.89,10.02 5.89,16.34l0 21.41 5.16 16.27 -5.16 9.46 -44 0 0 -7.86 -2.57 -0.82c-1.39,0.87 -3.77,2.11 -7.23,3.72 -3.42,1.59 -7.95,3.08 -13.63,4.4 -5.66,1.35 -12.45,2.02 -20.35,2.02zm21.88 -21.06c4.64,0 8.63,-0.29 11.96,-0.82 3.37,-0.53 5.8,-1.01 7.37,-1.43l0 -3.07c0,-1.4 -1.62,-2.75 -4.81,-4.01 -3.14,-1.29 -8.08,-1.94 -14.78,-1.94 -9.26,0 -13.89,2.02 -13.89,6.1 0,1.74 1.04,3.01 3.1,3.87 2.07,0.85 5.75,1.3 11.05,1.3zm146.93 21.06c-12.49,0 -23.6,-0.81 -33.21,-2.41 -9.58,-1.6 -17.03,-3.26 -22.38,-4.97l0 -22.39c7.05,1.94 14.29,3.45 21.79,4.52 7.42,1.07 14.16,1.8 20.18,2.16 5.98,0.37 10.3,0.56 12.85,0.56 2.92,0 4.99,-0.31 6.21,-0.9 1.17,-0.59 1.8,-1.28 1.8,-2.16 0,-1.17 -1.58,-2.16 -4.64,-2.97 -3.09,-0.79 -8.94,-1.83 -17.52,-3.12 -7.01,-1.07 -13.84,-2.45 -20.45,-4.13 -6.61,-1.66 -12,-3.99 -16.18,-6.97 -4.23,-3 -6.33,-7.05 -6.33,-12.08 0,-6.23 2.29,-11.1 6.91,-14.64 4.63,-3.54 11.24,-6.04 19.83,-7.5 8.58,-1.43 18.65,-2.16 30.11,-2.16 6.56,0 12.63,0.23 18.29,0.64 5.66,0.43 9.71,0.77 12.09,0.96l23.96 9.67 -11.6 17.21 -45.03 -6.12c-5.49,0 -8.23,1.13 -8.23,3.38 0,2.36 3.91,4.15 11.82,5.33 6.2,0.84 12.54,1.77 19.05,2.78 6.53,1.04 12.5,2.36 17.94,3.96 5.35,1.61 9.76,3.77 13.13,6.44 3.32,2.7 4.98,6.23 4.98,10.61 0,8.15 -4.67,14.25 -14.02,18.26 -9.35,4.02 -23.15,6.04 -41.35,6.04zm89.08 37.51l-36.31 -8.06 10.33 -23.97 36 6.43c7.43,0 12.77,-1.2 16.13,-3.59 3.33,-2.44 5.85,-5.78 7.56,-10.08l-26.52 0 -28.31 -55.04 -4.86 -20.9 48.9 0 14.17 53.09 5.11 0 14.16 -53.09 48.94 0c0,0 -0.57,1.69 -1.65,5.03 -1.13,3.4 -2.71,7.89 -4.64,13.46 -1.97,5.58 -4.32,11.71 -6.96,18.42 -2.66,6.72 -5.49,13.46 -8.37,20.26 -2.92,6.83 -5.92,13.09 -9.03,18.77 -4.62,8.9 -10.16,16.26 -16.58,22.05 -6.43,5.78 -14.29,10.12 -23.55,12.95 -9.31,2.84 -20.77,4.27 -34.52,4.27zm220.64 -39.1l-48.41 0 12.36 -27.2 0 -20.45 19.06 -4.8 33.43 -61.33 66.7 0 41.45 72.09 19.82 22.86 0 18.83 -45.57 0 -12.87 -25.77 -74.91 0 -11.06 25.77zm46.83 -87.37l-18.79 36.82 43.78 0 -19.6 -36.82 -5.39 0zm161.89 87.37l-46.34 0 0 -48.44 -5.16 -17.7 7.99 -9.83 38.34 0 0 6.94 2.34 0.96c1.88,-1.07 4.5,-2.34 7.87,-3.8 3.32,-1.43 7.37,-2.75 12.17,-3.93 4.81,-1.18 10.21,-1.77 16.23,-1.77 15.46,0 27.01,2.72 34.74,8.2 7.73,5.48 11.6,13.15 11.6,23.01l0 20.45 5.39 16.07 -5.39 9.84 -46.34 0 0 -42.18c0,-4.07 -1.39,-7.22 -4.23,-9.4 -2.83,-2.2 -7.27,-3.29 -13.25,-3.29l-15.96 3.04 0 51.83zm149.8 1.59c-8.04,0 -15.82,-1.28 -23.28,-3.84 -7.46,-2.58 -13.62,-6.66 -18.42,-12.25 -4.81,-5.57 -7.2,-12.87 -7.2,-21.89 0,-9.97 2.34,-17.95 7.1,-23.96 4.68,-6.01 10.84,-10.39 18.39,-13.12 7.55,-2.72 15.37,-4.1 23.41,-4.1 12.19,0 20.82,0.64 25.89,1.94 5.03,1.29 7.6,1.93 7.6,1.93l-2.62 -30.42 2.62 -9.66 46.56 0 0 88.01 5.17 16.1 -5.17 9.8 -44 0 0 -7.86 -2.56 -0.82c0,0 -1.3,0.84 -3.87,2.48 -2.6,1.68 -6.39,3.37 -11.32,5.08 -4.99,1.71 -11.1,2.58 -18.3,2.58zm19.33 -22.69l14.16 -2.25 0 -23.49c0,-2.47 -1.3,-4.43 -3.87,-5.9 -2.6,-1.43 -6.02,-2.13 -10.29,-2.13 -6.38,0 -11.19,1.29 -14.42,3.91 -3.29,2.64 -4.91,6.96 -4.91,12.97 0,5.91 1.89,10.2 5.66,12.87 3.78,2.69 8.32,4.02 13.67,4.02zm217.75 22.69c-9.43,0 -18.37,-0.56 -26.78,-1.71 -8.4,-1.09 -15.68,-2.47 -21.84,-4.07 -6.2,-1.6 -10.75,-3.12 -13.67,-4.52l0 -28.8c8.23,2.89 18.62,5.62 31.15,8.12 12.54,2.52 26.43,3.79 41.71,3.79 6.16,0 10.74,-0.5 13.76,-1.54 3,-1.02 4.53,-2.82 4.53,-5.37 0,-2.78 -3.42,-5.14 -10.21,-7.03 -6.77,-1.84 -17.43,-4.18 -32.04,-6.96 -11.32,-2.28 -20.99,-4.77 -28.98,-7.5 -7.96,-2.72 -14.03,-6.18 -18.25,-10.31 -4.22,-4.13 -6.3,-9.39 -6.3,-15.84 0,-6.63 2.74,-12.65 8.23,-18.01 5.48,-5.37 14.06,-9.61 25.75,-12.72 11.69,-3.1 26.61,-4.67 44.82,-4.67 5.48,0 11.32,0.14 17.57,0.42 6.29,0.25 11.32,0.62 15.09,1.04l29.09 13.35 -10.02 19.63 -61.04 -10.45c-7.01,0 -12.22,0.9 -15.59,2.73 -3.34,1.82 -5,4.02 -5,6.6 0,3.12 2.84,5.58 8.5,7.38 5.66,1.83 13.84,3.66 24.45,5.48 16.81,2.89 29.89,6.13 39.15,9.67 9.25,3.54 15.78,7.53 19.55,11.97 3.77,4.46 5.66,9.49 5.66,15.05 0,10.31 -6.6,18.57 -19.82,24.84 -13.21,6.29 -33.04,9.43 -59.47,9.43zm160.87 -102.82l-32.72 20.6 -32.68 -20.6 32.68 -20.42 32.72 20.42zm-9.53 101.23l-46.34 0 0 -53.27 -5.43 -12.87 5.16 -9.83 46.61 0 0 75.97zm28.81 -48.44l-5.13 -17.7 7.96 -9.83 38.39 0 0 6.94 2.29 0.96c1.88,-1.07 4.53,-2.34 7.85,-3.8 3.38,-1.43 7.43,-2.75 12.23,-3.93 4.82,-1.18 10.21,-1.77 16.23,-1.77 17.84,0 30.6,3.71 38.34,11.09 3.1,-2.66 7.77,-5.22 14.07,-7.63 6.25,-2.42 14.92,-3.63 26.1,-3.63 15.42,0 27.02,2.76 34.75,8.21 7.73,5.47 11.6,13.15 11.6,23.03l0 20.59 5.39 16.07 -5.39 9.84 -46.35 0 0 -42.34c0,-4.08 -1.43,-7.19 -4.22,-9.38 -2.88,-2.22 -7.28,-3.32 -13.3,-3.32 -3.96,0 -7.37,0.9 -10.3,2.72 -2.92,1.83 -4.36,4.13 -4.36,6.94l0 45.38 -46.33 0 0 -42.18c0,-4.07 -1.44,-7.22 -4.22,-9.4 -2.88,-2.2 -7.29,-3.29 -13.31,-3.29l-15.96 3.04 0 51.83 -46.33 0 0 -48.44zm282.16 87.54l-46.34 0 0 -87.7 -5.16 -17.7 8 -9.81 38.34 0 0 6.91 2.56 0.82c0,0 1.56,-0.82 4.63,-2.42 3.09,-1.63 7.36,-3.2 12.71,-4.77 5.44,-1.55 11.78,-2.31 18.97,-2.31 15.28,0 27.24,3.03 35.87,9.16 8.72,6.12 13.03,15.76 13.03,28.96 0,9.86 -2.2,17.84 -6.57,23.89 -4.35,6.06 -10.24,10.44 -17.61,13.11 -7.37,2.7 -15.64,4.04 -24.72,4.04 -12.36,0 -21.08,-0.64 -26.16,-1.88 -5.03,-1.2 -7.55,-1.82 -7.55,-1.82l0 41.52zm11.82 -59.87c6.52,0 11.78,-1.45 15.82,-4.35 4.05,-2.89 6.07,-7.27 6.07,-13.18 0,-5.81 -1.62,-10.02 -4.9,-12.72 -3.23,-2.67 -8.04,-4.02 -14.43,-4.02l-14.38 3.37 0 28.8c0,0 0.85,0.37 2.66,1.03 1.84,0.71 4.89,1.07 9.16,1.07zm139.29 20.77l-46.34 0 -0.27 -88.19 -5.17 -16.09 5.44 -9.64 46.34 0 0 113.92zm90.02 1.59c-13.21,0 -24.95,-1.23 -35.23,-3.7 -10.34,-2.48 -18.39,-6.6 -24.23,-12.39 -5.85,-5.79 -8.77,-13.63 -8.77,-23.49 0,-7.08 1.98,-13.15 5.85,-18.17 3.81,-5.06 9.03,-9.16 15.55,-12.34 6.51,-3.14 13.8,-5.45 21.88,-6.91 8.05,-1.43 16.37,-2.16 24.95,-2.16 14.79,0 26.17,0.92 34.16,2.72 7.95,1.83 13.21,3.29 15.78,4.36l12.9 25.59 -5.17 9.98 -79.78 0c1.17,3.95 4.36,7.3 9.52,9.97 5.13,2.67 13.63,4.01 25.49,4.01 9.26,0 17.21,-0.64 23.91,-1.93 6.69,-1.27 11.95,-2.39 15.74,-3.37l0 21.57c-5.18,1.71 -12.59,3.18 -22.26,4.41 -9.7,1.23 -19.82,1.85 -30.29,1.85zm-21.88 -46.83l35.55 -3.2 -2.35 -6.94c-1.16,-0.41 -2.91,-0.73 -5.25,-0.96 -2.34,-0.22 -4.35,-0.3 -6.07,-0.3 -4.81,0 -8.77,0.64 -11.95,1.91 -3.19,1.29 -5.57,2.81 -7.2,4.58 -1.66,1.77 -2.56,3.42 -2.73,4.91zm219.6 45.24l-46.35 0 0 -88.02 -5.16 -16.26 5.16 -9.64 82.39 0c12.54,0 23.78,1.21 33.8,3.63 10.07,2.41 18.06,6.45 23.95,12.18 5.94,5.77 8.9,13.68 8.9,23.77 0,9.1 -2.65,16.49 -7.95,22.11 -5.35,5.62 -12.72,9.86 -22.16,12.64l2.56 1.77 25.49 19.95 14.69 8.2 0 9.67 -57.93 0 -36.05 -34.28 -21.34 0 0 8.37 2.55 16.07 -2.55 9.84zm-2.57 -88.19l2.57 28.65 25.21 0c8.94,0 16.05,-1.06 21.39,-3.17 5.3,-2.08 7.96,-5.95 7.96,-11.63 0,-3.99 -1.26,-6.97 -3.87,-8.96 -2.56,-1.97 -6.11,-3.29 -10.7,-3.93 -4.53,-0.62 -9.79,-0.96 -15.82,-0.96l-26.74 0zm169.31 89.78c-7.37,0 -14.16,-0.67 -20.41,-2.02 -6.25,-1.32 -11.27,-3.65 -15.09,-7 -3.78,-3.31 -5.67,-7.91 -5.67,-13.82 0,-5.36 2.16,-9.83 6.42,-13.37 4.32,-3.53 10.12,-6.14 17.54,-7.86 7.36,-1.71 15.68,-2.59 24.94,-2.59 8.94,0 15.64,0.62 20.09,1.83 4.49,1.27 8.36,2.52 11.6,3.82l1.8 -0.99c0,-3.2 -0.45,-5.89 -1.31,-8.03 -0.86,-2.16 -2.83,-3.79 -5.93,-4.89 -3.06,-1.15 -7.87,-1.71 -14.38,-1.71 -6.34,0 -13.09,0.34 -20.19,1.04 -7.14,0.7 -13.65,1.55 -19.59,2.55 -5.94,1.05 -10.33,2.03 -13.25,3.01l0 -24.13c5.3,-1.18 12.89,-2.31 22.78,-3.31 9.85,-1.02 21.97,-1.52 36.4,-1.52 15.47,0 27.68,1.21 36.73,3.59 8.98,2.42 15.45,5.9 19.41,10.46 3.96,4.58 5.89,10.02 5.89,16.34l0 21.41 5.17 16.27 -5.17 9.46 -44 0 0 -7.86 -2.56 -0.82c-1.4,0.87 -3.78,2.11 -7.24,3.72 -3.42,1.59 -7.95,3.08 -13.58,4.4 -5.71,1.35 -12.49,2.02 -20.4,2.02zm21.89 -21.06c4.63,0 8.63,-0.29 12,-0.82 3.32,-0.53 5.75,-1.01 7.33,-1.43l0 -3.07c0,-1.4 -1.58,-2.75 -4.77,-4.01 -3.18,-1.29 -8.09,-1.94 -14.74,-1.94 -9.31,0 -13.98,2.02 -13.98,6.1 0,1.74 1.04,3.01 3.1,3.87 2.07,0.85 5.8,1.3 11.06,1.3zm146.48 19.47l-46.35 0 0 -52.14 -13.61 -16.11 13.61 -7.72c-0.85,-1.83 -1.48,-4.27 -1.88,-7.33 -0.45,-3.03 -0.67,-5.53 -0.67,-7.48 0,-6.09 2.29,-11.45 6.82,-16.06 4.55,-4.64 10.84,-8.26 18.93,-10.91 8.04,-2.61 17.17,-3.9 27.28,-3.9 4.81,0 9.88,0.12 15.33,0.36 5.39,0.29 10.06,0.77 14.02,1.42l27.55 9.8 -19.82 22.36 -29.61 -11.27c-5.85,0 -10.12,1.32 -12.87,3.94 -2.78,2.64 -4.13,5.56 -4.13,8.79 0,2.36 0.59,4.44 1.8,6.26 1.22,1.83 2.38,3.18 3.6,4.02l41.21 0 0 19.33 -41.21 0 0 30.57 2.55 16.23 -2.55 9.84zm105.03 0l-46.34 0 0 -52.14 -13.66 -16.11 13.66 -7.72c-0.85,-1.83 -1.53,-4.27 -1.93,-7.33 -0.45,-3.03 -0.63,-5.53 -0.63,-7.48 0,-6.09 2.25,-11.45 6.78,-16.06 4.59,-4.64 10.89,-8.26 18.97,-10.91 8.05,-2.61 17.13,-3.9 27.29,-3.9 4.8,0 9.88,0.12 15.28,0.36 5.44,0.29 10.11,0.77 14.07,1.42l27.5 9.8 -19.82 22.36 -29.58 -11.27c-5.83,0 -10.15,1.32 -12.9,3.94 -2.73,2.64 -4.08,5.56 -4.08,8.79 0,2.36 0.59,4.44 1.79,6.26 1.22,1.83 2.38,3.18 3.6,4.02l41.17 0 0 19.33 -41.17 0 0 30.57 2.56 16.23 -2.56 9.84zm107.6 0l-46.34 0 -0.27 -88.19 -5.12 -16.09 5.39 -9.64 46.34 0 0 113.92zm90.07 1.59c-13.21,0 -24.99,-1.23 -35.28,-3.7 -10.3,-2.48 -18.39,-6.6 -24.19,-12.39 -5.84,-5.79 -8.75,-13.63 -8.75,-23.49 0,-7.08 1.93,-13.15 5.78,-18.17 3.87,-5.06 9.05,-9.16 15.56,-12.34 6.51,-3.14 13.84,-5.45 21.89,-6.91 8.09,-1.43 16.4,-2.16 24.99,-2.16 14.75,0 26.11,0.92 34.11,2.72 7.96,1.83 13.26,3.29 15.82,4.36l12.85 25.59 -5.12 9.98 -79.82 0c1.22,3.95 4.36,7.3 9.53,9.97 5.17,2.67 13.66,4.01 25.48,4.01 9.26,0 17.26,-0.64 23.96,-1.93 6.7,-1.27 11.91,-2.39 15.69,-3.37l0 21.57c-5.13,1.71 -12.54,3.18 -22.25,4.41 -9.72,1.23 -19.78,1.85 -30.25,1.85zm-21.89 -46.83l35.51 -3.2 -2.29 -6.94c-1.22,-0.41 -2.97,-0.73 -5.26,-0.96 -2.35,-0.22 -4.36,-0.3 -6.07,-0.3 -4.81,0 -8.81,0.64 -11.96,1.91 -3.19,1.29 -5.61,2.81 -7.19,4.58 -1.66,1.77 -2.55,3.42 -2.74,4.91zm156.5 46.83c-12.54,0 -23.59,-0.81 -33.21,-2.41 -9.62,-1.6 -17.09,-3.26 -22.39,-4.97l0 -22.39c7.06,1.94 14.3,3.45 21.8,4.52 7.42,1.07 14.15,1.8 20.18,2.16 5.97,0.37 10.29,0.56 12.86,0.56 2.92,0 4.99,-0.31 6.15,-0.9 1.22,-0.59 1.84,-1.28 1.84,-2.16 0,-1.17 -1.56,-2.16 -4.67,-2.97 -3.05,-0.79 -8.9,-1.83 -17.48,-3.12 -7.06,-1.07 -13.84,-2.45 -20.46,-4.13 -6.6,-1.66 -12,-3.99 -16.22,-6.97 -4.22,-3 -6.34,-7.05 -6.34,-12.08 0,-6.23 2.34,-11.1 6.97,-14.64 4.63,-3.54 11.23,-6.04 19.82,-7.5 8.59,-1.43 18.61,-2.16 30.12,-2.16 6.51,0 12.62,0.23 18.29,0.64 5.66,0.43 9.7,0.77 12.08,0.96l23.96 9.67 -11.6 17.21 -45.03 -6.12c-5.48,0 -8.26,1.13 -8.26,3.38 0,2.36 3.94,4.15 11.86,5.33 6.16,0.84 12.54,1.77 19.05,2.78 6.53,1.04 12.5,2.36 17.9,3.96 5.39,1.61 9.79,3.77 13.11,6.44 3.37,2.7 5.04,6.23 5.04,10.61 0,8.15 -4.67,14.25 -14.03,18.26 -9.34,4.02 -23.13,6.04 -41.34,6.04z"/>
  <g id="_1591428914000">
   <path class="fil1" d="M109.26 529.86c-3.3,3.28 -5.14,7.75 -5.14,12.41 0,4.64 1.84,9.11 5.14,12.4l154.85 154.94c6.85,6.85 17.96,6.85 24.82,0 6.85,-6.86 6.85,-17.97 0,-24.81l-154.94 -154.94c-6.84,-6.8 -17.89,-6.8 -24.73,0z"/>
   <path class="fil1" d="M609.76 615.35l0 -216.32c0,-9.68 -7.85,-17.54 -17.54,-17.54 -9.68,0 -17.54,7.86 -17.54,17.54l0 216.32c0,9.69 7.86,17.53 17.54,17.53 9.69,0 17.54,-7.84 17.54,-17.53z"/>
   <path class="fil1" d="M337.85 304.68c-2.01,-7.81 -8.98,-13.04 -16.66,-13.18l-0.68 0c-1.34,0.02 -2.7,0.21 -4.05,0.56 -9.4,2.42 -15.05,11.99 -12.63,21.39l52.61 210.44c2.42,9.4 12,15.05 21.4,12.63 9.39,-2.42 15.05,-12 12.62,-21.4l-52.61 -210.44z"/>
   <path class="fil1" d="M106.63 929.7c55.06,78.92 54.63,114.52 54.28,149.06 -2.63,251.13 171.42,328.73 274.8,334.96 7.89,0.43 15.52,0.7 23.15,0.7 96.7,1.15 189.26,-39.17 254.28,-110.75l57.43 -63.3 0.97 -1.15 28.5 -31.47c14.99,-15.01 23.12,-35.1 23.24,-55.7l0 -0.91c-0.04,-7.35 -1.1,-14.76 -3.24,-22.02 -8.23,-27.88 -31.03,-49.05 -59.46,-55.18 5.54,-20.15 1.98,-41.71 -9.74,-59 -11.72,-17.29 -30.43,-28.58 -51.2,-30.88 2.85,-7.87 4.33,-16.18 4.38,-24.55 0.11,-37.71 -26.5,-70.23 -63.48,-77.6l95.14 -95.49c20.31,-20.25 28.12,-49.88 20.42,-77.51 -7.71,-27.63 -29.73,-48.96 -57.59,-55.77 -27.86,-6.82 -57.23,1.93 -76.83,22.88 -104.25,111.28 -233.84,237.9 -284.97,258.67 -29.81,12.28 -37,2.72 -60.06,-35.07 -16.02,-29.61 -37.29,-56.05 -62.78,-78.04 -30.34,-24.63 -66.03,-25.34 -95.58,-1.93 -33.41,26.39 -38.23,71.82 -11.66,110.05zm637.02 177.65c11.75,-0.05 23.03,4.63 31.31,12.98 8.35,8.45 12.98,19.89 12.86,31.78 -0.11,11.87 -4.97,23.22 -13.47,31.52l-27.8 30.61c-15.25,7.19 -33.36,4.15 -45.42,-7.64l-1.57 -1.66c-14.86,-14.57 -16.3,-38 -3.34,-54.28l43.84 -43.84 3.59 0.53zm-26.3 -78.4c13.46,13.36 14.39,34.83 2.11,49.29 -0.74,0.67 -1.41,1.4 -2.02,2.19l-50.33 50.33c-14.5,5.3 -30.75,1.9 -41.92,-8.77l-2.1 -2.1c-14.28,-14.84 -15.33,-37.95 -2.45,-54.02 7.01,-5.43 36.38,-28.67 51.99,-42.09 14.29,-8.65 32.63,-6.52 44.55,5.17l0.17 0zm-61.38 -100.92c8.35,8.28 13.02,19.55 12.98,31.3 -1.15,14.25 -7.74,27.5 -18.41,37.01 -10.7,9.29 -33.76,27.79 -50.78,41.12 -14.77,4.22 -30.66,0.05 -41.47,-10.87l-1.14 -1.15c-16.62,-16.63 -16.62,-43.59 0,-60.23l41.21 -41.21c17.47,-13.25 42.03,-11.56 57.53,3.95l0.08 0.08zm-515.85 -81.29c16.84,-13.32 33.76,-12.79 51.65,1.67 22.32,19.47 40.92,42.82 54.89,68.92 8.14,15.22 18.34,29.24 30.34,41.65 0.33,0.49 0.68,0.96 1.06,1.4 1.49,1.58 35.06,38.33 0.87,91.73 -4.79,8.13 -2.28,18.6 5.68,23.67 7.96,5.09 18.51,2.95 23.87,-4.83 19.6,-28.09 25.52,-63.51 16.13,-96.45 8.69,-1.18 17.18,-3.52 25.26,-6.92 69,-28.33 230.78,-196.24 297.24,-267.18 8.17,-8.8 19.58,-13.87 31.57,-14.03 12.02,-0.19 23.59,4.5 32.1,12.98 8.33,8.31 13,19.59 13,31.35 0,11.76 -4.67,23.04 -13,31.34l-178.53 178.18c-14.65,14.58 -22.89,34.4 -22.89,55.06 0,20.67 8.24,40.49 22.89,55.07l0.97 0.97c12.07,12.1 27.84,19.85 44.8,22 -6.22,25.74 1.35,52.85 19.99,71.65l0.7 0.6 0.7 0.7c14.23,14.1 33.47,21.99 53.49,21.93 -2.42,22.7 5.57,45.27 21.75,61.37l1.32 1.5c10.14,10.12 22.94,17.17 36.91,20.34l-26.31 29.02 -0.7 0.79c-63.6,68.46 -154.86,104.31 -248.05,97.42 -45.19,-3.92 -88.7,-18.98 -126.62,-43.84 2.72,0 5.52,0 8.32,0l7.46 0c43.84,-2.81 83.91,-29.37 119.69,-78.91 5.37,-7.88 3.48,-18.6 -4.27,-24.14 -7.74,-5.56 -18.49,-3.91 -24.23,3.7 -29.2,40.69 -60.5,62.44 -93.12,64.63 -45.5,2.98 -80.5,-33.41 -81.02,-33.94 -0.78,-0.81 -1.62,-1.54 -2.54,-2.19 -27.45,-43.31 -46.3,-102.76 -45.42,-184.92 0.53,-46.4 -3.68,-88.3 -60.59,-169.68 -13.25,-18.58 -16.84,-45.42 4.64,-62.61z"/>
   <polygon class="fil1" points="413.17,648.93 374.42,654.55 402.47,681.9 395.82,720.48 430.44,702.25 465.08,720.48 458.42,681.9 486.48,654.55 447.73,648.93 430.44,613.86 "/>
   <polygon class="fil1" points="469.55,438.05 481.39,464.7 495.42,439.02 524.44,436.03 504.36,414.81 510.51,386.23 484.11,398.77 458.77,384.13 462.54,413.15 440.79,432.7 "/>
   <polygon class="fil1" points="236.23,426.3 215.09,406.22 211.94,435.24 186.25,449.19 212.9,461.11 218.25,489.88 237.8,468.13 266.82,471.99 252.19,446.64 264.81,420.34 "/>
  </g>
 </g>
</svg>
